<svg width="24" height="24" viewBox="0 0 24 24" fill="none" xmlns="http://www.w3.org/2000/svg">
<path d="M15 17.0002V18.0002C15 18.7958 14.6839 19.5589 14.1213 20.1215C13.5587 20.6841 12.7957 21.0002 12 21.0002C11.2044 21.0002 10.4413 20.6841 9.87868 20.1215C9.31607 19.5589 9 18.7958 9 18.0002V17.0002M15 17.0002H9M15 17.0002H18.59C18.973 17.0002 19.165 17.0002 19.32 16.9482C19.4658 16.8988 19.5982 16.8164 19.707 16.7075C19.8157 16.5986 19.8979 16.466 19.947 16.3202C20 16.1642 20 15.9722 20 15.5862C20 15.4172 20 15.3332 19.986 15.2522C19.9613 15.1007 19.9021 14.957 19.813 14.8322C19.765 14.7652 19.705 14.7052 19.586 14.5862L19.196 14.1962C19.1338 14.1339 19.0845 14.06 19.0508 13.9787C19.0172 13.8973 18.9999 13.8102 19 13.7222V10.0002C19 9.08091 18.8189 8.17066 18.4672 7.32138C18.1154 6.4721 17.5998 5.70042 16.9497 5.05041C16.2997 4.4004 15.5281 3.88479 14.6788 3.533C13.8295 3.18122 12.9193 3.00016 12 3.00016C11.0807 3.00016 10.1705 3.18122 9.32122 3.533C8.47194 3.88479 7.70027 4.4004 7.05026 5.05041C6.40025 5.70042 5.88463 6.4721 5.53285 7.32138C5.18106 8.17066 5 9.08091 5 10.0002V13.7222C5.00007 13.8102 4.98279 13.8973 4.94916 13.9787C4.91553 14.06 4.8662 14.1339 4.804 14.1962L4.414 14.5862C4.294 14.7062 4.235 14.7652 4.188 14.8312C4.09803 14.9561 4.03814 15.1002 4.013 15.2522C4 15.3322 4 15.4172 4 15.5862C4 15.9722 4 16.1642 4.052 16.3202C4.10133 16.4662 4.18378 16.5989 4.2929 16.7079C4.40201 16.8168 4.53484 16.8991 4.681 16.9482C4.836 17.0002 5.027 17.0002 5.41 17.0002H9M18.019 2.01416C19.3979 3.05356 20.4842 4.43231 21.172 6.01616M5.982 2.01416C4.60274 3.05344 3.51613 4.43219 2.828 6.01616" stroke="#AAAAAA" stroke-width="2" stroke-linecap="round" stroke-linejoin="round"/>
</svg>
