<svg width="32" height="32" viewBox="0 0 32 32" fill="none" xmlns="http://www.w3.org/2000/svg">
<path fill-rule="evenodd" clip-rule="evenodd" d="M21.9045 11.4852C21.9045 11.5189 21.9042 11.5526 21.9034 11.5861C21.9034 11.5864 21.9037 11.5867 21.904 11.5867C21.9043 11.5867 21.9045 11.5869 21.9045 11.5872V15.3616C21.9045 15.5271 21.9715 15.6837 22.0686 15.8178L24.289 18.8866C24.3417 18.9593 24.3997 19.028 24.4627 19.0921L24.5195 19.1499C25.0185 19.6575 25.1423 20.4248 24.8284 21.0636C24.5466 21.6369 23.9634 22.0001 23.3246 22.0001H8.67629C8.03631 22.0001 7.45217 21.6357 7.17077 21.0609C6.85866 20.4233 6.98196 19.6583 7.47856 19.1511L7.53754 19.0909C7.59948 19.0276 7.65665 18.9599 7.70859 18.8882L9.93386 15.8168C10.028 15.6869 10.0925 15.5351 10.0925 15.3747V11.5875C10.0925 11.5872 10.0927 11.5869 10.093 11.5869C10.0933 11.5869 10.0936 11.5867 10.0936 11.5864C10.0929 11.5528 10.0925 11.5191 10.0925 11.4854C10.0925 8.98185 12.5533 5.97763 15.9985 6.00013C19.4437 6.02262 21.9045 8.86545 21.9045 11.4852Z" fill="#333333"/>
<path fill-rule="evenodd" clip-rule="evenodd" d="M12 23C12 24.6569 13.7909 26 16 26C18.2091 26 20 24.6569 20 23H12Z" fill="#333333"/>
<circle cx="20" cy="8" r="2" fill="#FF7E29"/>
</svg>
