<svg width="24" height="24" viewBox="0 0 24 24" fill="none" xmlns="http://www.w3.org/2000/svg">
<path d="M20.886 3.11993C20.5305 2.7644 20.1085 2.48239 19.644 2.28998C19.1796 2.09757 18.6817 1.99854 18.179 1.99854C17.6762 1.99854 17.1784 2.09757 16.714 2.28998C16.2495 2.48239 15.8275 2.7644 15.472 3.11993L14.372 4.22193C14.3169 4.26584 14.2666 4.31545 14.222 4.36993L3.30199 15.2919C3.16237 15.4312 3.06704 15.6086 3.02799 15.8019L2.01999 20.8019C1.98711 20.9635 1.9947 21.1307 2.04209 21.2887C2.08947 21.4467 2.17519 21.5904 2.2916 21.7072C2.40801 21.824 2.5515 21.9103 2.7093 21.9582C2.86709 22.0061 3.03428 22.0143 3.19599 21.9819L8.20399 20.9819C8.39729 20.9429 8.57473 20.8475 8.71399 20.7079L20.886 8.53593C21.2415 8.18046 21.5235 7.75844 21.7159 7.29397C21.9083 6.82949 22.0074 6.33167 22.0074 5.82893C22.0074 5.32618 21.9083 4.82836 21.7159 4.36389C21.5235 3.89942 21.2415 3.4774 20.886 3.12193M15.004 6.41993L17.59 9.00593L7.51399 19.0799L4.27799 19.7279L4.92799 16.4959L15.004 6.41993ZM19.004 7.59193L16.418 5.00393L16.886 4.53593C17.0549 4.3628 17.2565 4.22493 17.4791 4.13029C17.7017 4.03566 17.9409 3.98614 18.1828 3.98461C18.4247 3.98308 18.6644 4.02957 18.8882 4.12138C19.112 4.2132 19.3153 4.34851 19.4864 4.51948C19.6575 4.69045 19.793 4.89368 19.885 5.11739C19.977 5.3411 20.0236 5.58084 20.0223 5.82272C20.021 6.0646 19.9716 6.3038 19.8772 6.52648C19.7827 6.74915 19.645 6.95086 19.472 7.11993L19.004 7.59193Z" fill="#AAAAAA"/>
</svg>
