<svg width="167" height="34" viewBox="0 0 167 34" fill="none" xmlns="http://www.w3.org/2000/svg">
<path d="M144.534 26.745L142.609 10.33C142.609 10.33 142.597 10.2483 142.574 10.085C142.551 9.8983 142.586 9.67663 142.679 9.41996C142.772 9.1633 142.994 8.92997 143.344 8.71997C143.717 8.48663 144.301 8.33496 145.094 8.26496C145.887 8.19496 146.494 8.2533 146.914 8.43996C147.357 8.62663 147.672 8.85996 147.859 9.13996C148.046 9.41996 148.151 9.67663 148.174 9.90996C148.221 10.1433 148.244 10.26 148.244 10.26L148.804 15.615L152.059 9.62996C152.059 9.62996 152.152 9.5133 152.339 9.27996C152.526 9.0233 152.852 8.80163 153.319 8.61497C153.786 8.4283 154.416 8.41663 155.209 8.57997C156.026 8.7433 156.574 8.96496 156.854 9.24497C157.134 9.52496 157.251 9.8283 157.204 10.155C157.181 10.4816 157.076 10.7966 156.889 11.1C156.772 11.2866 156.551 11.6366 156.224 12.15C155.897 12.6633 155.512 13.2466 155.069 13.9C154.649 14.5533 154.241 15.1833 153.844 15.79C153.447 16.3966 153.109 16.91 152.829 17.33C152.572 17.7266 152.444 17.925 152.444 17.925L158.464 25.345C158.464 25.345 158.534 25.4616 158.674 25.695C158.814 25.905 158.896 26.1616 158.919 26.465C158.942 26.745 158.779 27.0016 158.429 27.235C158.102 27.4683 157.461 27.6083 156.504 27.655C155.571 27.6783 154.824 27.55 154.264 27.27C153.704 26.9666 153.296 26.6633 153.039 26.36C152.806 26.0333 152.689 25.87 152.689 25.87L149.749 21.46L150.274 26.815C150.274 26.815 150.274 26.9083 150.274 27.095C150.274 27.2816 150.204 27.4916 150.064 27.725C149.947 27.9583 149.691 28.1683 149.294 28.355C148.897 28.5416 148.314 28.635 147.544 28.635C146.774 28.635 146.179 28.5416 145.759 28.355C145.339 28.1683 145.036 27.9466 144.849 27.69C144.686 27.4333 144.592 27.2116 144.569 27.025C144.546 26.8383 144.534 26.745 144.534 26.745Z" fill="#FF7E29"/>
<path d="M141.233 24.1196C141.233 24.1196 141.198 24.2713 141.128 24.5746C141.058 24.878 140.906 25.2513 140.673 25.6946C140.44 26.138 140.078 26.593 139.588 27.0596C139.121 27.503 138.48 27.8763 137.663 28.1796C136.846 28.483 135.82 28.6346 134.583 28.6346C133.09 28.6346 131.865 28.4013 130.908 27.9346C129.975 27.468 129.24 26.838 128.703 26.0446C128.166 25.228 127.781 24.3296 127.548 23.3496C127.315 22.3463 127.175 21.308 127.128 20.2346C127.105 19.1613 127.116 18.123 127.163 17.1196C127.21 16.093 127.245 15.1713 127.268 14.3546C127.291 13.118 127.513 12.1263 127.933 11.3796C128.376 10.6096 128.913 10.0263 129.543 9.62963C130.196 9.20963 130.873 8.91797 131.573 8.75463C132.273 8.5913 132.903 8.49797 133.463 8.47463C134.606 8.40463 135.761 8.60297 136.928 9.06963C138.095 9.5363 139.04 10.3996 139.763 11.6596C140.136 12.2896 140.241 12.7913 140.078 13.1646C139.938 13.5146 139.67 13.7713 139.273 13.9346C138.9 14.098 138.515 14.203 138.118 14.2496C137.721 14.2963 137.465 14.3196 137.348 14.3196C136.601 14.3196 136.03 14.2146 135.633 14.0046C135.26 13.7946 134.991 13.5496 134.828 13.2696C134.688 12.9663 134.618 12.698 134.618 12.4646C134.618 12.278 134.56 12.0913 134.443 11.9046C134.35 11.6946 134.221 11.5546 134.058 11.4846C133.918 11.4146 133.766 11.4963 133.603 11.7296C133.463 11.963 133.346 12.418 133.253 13.0946C133.183 13.6313 133.136 14.343 133.113 15.2296C133.113 16.093 133.125 17.0146 133.148 17.9946C133.171 18.9513 133.195 19.8613 133.218 20.7246C133.265 21.588 133.3 22.2996 133.323 22.8596C133.37 23.3963 133.393 23.6646 133.393 23.6646C133.393 23.6646 133.416 23.8396 133.463 24.1896C133.533 24.5396 133.661 24.8896 133.848 25.2396C134.058 25.5896 134.361 25.7763 134.758 25.7996C135.061 25.823 135.295 25.7296 135.458 25.5196C135.645 25.2863 135.773 25.0296 135.843 24.7496C135.936 24.4463 135.995 24.1896 136.018 23.9796C136.041 23.7463 136.053 23.6296 136.053 23.6296C136.053 23.6296 136.041 23.5363 136.018 23.3496C136.018 23.163 136.076 22.953 136.193 22.7196C136.31 22.463 136.555 22.253 136.928 22.0896C137.301 21.903 137.873 21.8213 138.643 21.8446C139.413 21.868 139.985 21.9963 140.358 22.2296C140.731 22.4396 140.976 22.6963 141.093 22.9996C141.21 23.2796 141.256 23.5363 141.233 23.7696C141.233 24.003 141.233 24.1196 141.233 24.1196Z" fill="#FF7E29"/>
<path d="M113.731 8.40479C113.731 8.40479 113.882 8.42812 114.186 8.47478C114.489 8.49812 114.827 8.60312 115.201 8.78978C115.597 8.95312 115.936 9.25645 116.216 9.69979C116.496 10.1198 116.612 10.7381 116.566 11.5548C116.542 12.0915 116.507 12.8148 116.461 13.7248C116.437 14.6115 116.426 15.5915 116.426 16.6648C116.426 17.7148 116.449 18.7648 116.496 19.8148C116.566 20.8648 116.671 21.8331 116.811 22.7198C116.974 23.6065 117.184 24.3181 117.441 24.8548C117.721 25.3681 118.059 25.6131 118.456 25.5898C118.876 25.5665 119.191 25.2865 119.401 24.7498C119.611 24.1898 119.751 23.4898 119.821 22.6498C119.891 21.7865 119.914 20.8765 119.891 19.9198C119.867 18.9631 119.821 18.0531 119.751 17.1898C119.681 16.3031 119.611 15.5798 119.541 15.0198C119.494 14.4365 119.459 14.1098 119.436 14.0398C119.412 13.9465 119.378 13.7481 119.331 13.4448C119.284 13.1415 119.307 12.8148 119.401 12.4648C119.494 12.1148 119.727 11.7998 120.101 11.5198C120.497 11.2398 121.116 11.0648 121.956 10.9948C122.796 10.9248 123.449 11.0298 123.916 11.3098C124.382 11.5898 124.709 11.9281 124.896 12.3248C125.106 12.7215 125.222 13.0715 125.246 13.3748C125.292 13.6781 125.316 13.8298 125.316 13.8298C125.316 13.8298 125.351 14.0981 125.421 14.6348C125.514 15.1715 125.584 15.8831 125.631 16.7698C125.701 17.6331 125.701 18.5898 125.631 19.6398C125.584 20.6898 125.432 21.7515 125.176 22.8248C124.942 23.8748 124.557 24.8431 124.021 25.7298C123.484 26.5931 122.761 27.2931 121.851 27.8298C120.941 28.3665 119.797 28.6348 118.421 28.6348C117.044 28.6348 115.877 28.3548 114.921 27.7948C113.987 27.2115 113.217 26.4531 112.611 25.5198C112.027 24.5631 111.572 23.5015 111.246 22.3348C110.942 21.1681 110.732 19.9781 110.616 18.7648C110.522 17.5281 110.476 16.3615 110.476 15.2648C110.499 14.1681 110.534 13.2115 110.581 12.3948C110.651 11.5781 110.697 10.9948 110.721 10.6448C110.767 10.0381 110.942 9.58312 111.246 9.27978C111.549 8.95312 111.887 8.73145 112.261 8.61479C112.657 8.49812 112.996 8.43979 113.276 8.43979C113.579 8.41645 113.731 8.40479 113.731 8.40479Z" fill="#FF7E29"/>
<path d="M95.4713 26.3598C95.3779 24.9831 95.2729 23.5481 95.1563 22.0548C95.0396 20.5381 94.9229 19.0914 94.8063 17.7148C94.7129 16.3381 94.6313 15.1714 94.5613 14.2148C94.4913 13.2348 94.4329 12.6048 94.3863 12.3248C94.3163 11.7881 94.3396 11.4264 94.4563 11.2398C94.5963 11.0298 94.6663 10.9248 94.6663 10.9248C94.6663 10.9248 94.5846 10.8431 94.4213 10.6798C94.2579 10.4931 94.1763 10.2948 94.1763 10.0848C94.1763 9.71143 94.3979 9.4081 94.8413 9.17476C95.3079 8.94143 95.8329 8.76643 96.4163 8.64976C96.9996 8.5331 97.5129 8.45143 97.9563 8.40477C98.4229 8.3581 98.6563 8.33477 98.6563 8.33477C98.6563 8.33477 98.8896 8.3231 99.3563 8.29977C99.8229 8.27643 100.418 8.29977 101.141 8.36976C101.888 8.43976 102.681 8.62643 103.521 8.92977C104.385 9.20977 105.201 9.66477 105.971 10.2948C106.765 10.9248 107.43 11.7881 107.966 12.8848C108.503 13.9581 108.83 15.3348 108.946 17.0148C109.086 18.9981 108.993 20.6664 108.666 22.0198C108.363 23.3731 107.896 24.4814 107.266 25.3448C106.66 26.1848 105.96 26.8381 105.166 27.3048C104.373 27.7714 103.545 28.0981 102.681 28.2848C101.841 28.4481 101.036 28.5531 100.266 28.5998C99.5196 28.6231 98.8663 28.6348 98.3063 28.6348C97.4896 28.6348 96.8713 28.5181 96.4513 28.2848C96.0546 28.0514 95.7863 27.7948 95.6463 27.5148C95.5296 27.2114 95.4713 26.9431 95.4713 26.7098C95.4713 26.4764 95.4713 26.3598 95.4713 26.3598ZM99.2163 11.4848L100.756 25.6598C100.756 25.6598 100.861 25.6481 101.071 25.6248C101.281 25.6014 101.538 25.4964 101.841 25.3098C102.168 25.1231 102.471 24.7848 102.751 24.2948C103.055 23.8048 103.288 23.1164 103.451 22.2298C103.615 21.3198 103.65 20.1414 103.556 18.6948C103.463 16.8748 103.265 15.4631 102.961 14.4598C102.681 13.4331 102.331 12.6981 101.911 12.2548C101.515 11.8114 101.083 11.5548 100.616 11.4848C100.15 11.4148 99.6829 11.4148 99.2163 11.4848Z" fill="#FF7E29"/>
<path d="M80.1732 28.635C79.3332 28.635 78.6915 28.5417 78.2482 28.355C77.8282 28.145 77.5248 27.9117 77.3382 27.655C77.1748 27.375 77.0815 27.1417 77.0582 26.955C77.0582 26.745 77.0582 26.64 77.0582 26.64C77.0582 26.64 77.0232 26.29 76.9532 25.59C76.8832 24.89 76.7898 23.9917 76.6732 22.895C76.5565 21.775 76.4282 20.585 76.2882 19.325C76.1715 18.0417 76.0432 16.8167 75.9032 15.65C75.7865 14.46 75.6932 13.4567 75.6232 12.64C75.5532 11.8 75.5065 11.275 75.4832 11.065C75.4598 10.4583 75.5882 9.93333 75.8682 9.49C76.1715 9.02333 76.8948 8.755 78.0382 8.685C78.8082 8.63833 79.4265 8.755 79.8932 9.035C80.3598 9.315 80.6982 9.60667 80.9082 9.91C81.1182 10.19 81.2232 10.33 81.2232 10.33L84.5132 18.31L85.8082 20.725L85.0032 14.075C85.0032 14.075 85.0032 13.69 85.0032 12.92C85.0265 12.15 85.0732 11.2283 85.1432 10.155C85.1898 9.61834 85.3648 9.21 85.6682 8.93C85.9715 8.65 86.3098 8.45167 86.6832 8.335C87.0798 8.21833 87.4182 8.16 87.6982 8.16C88.0015 8.13667 88.1532 8.125 88.1532 8.125C88.1532 8.125 88.2815 8.13667 88.5382 8.16C88.8182 8.18333 89.1332 8.28833 89.4832 8.475C89.8332 8.63833 90.1365 8.94167 90.3932 9.385C90.6732 9.805 90.8015 10.4233 90.7782 11.24C90.7548 12.2433 90.7898 13.3867 90.8832 14.67C90.9765 15.93 91.0932 17.225 91.2332 18.555C91.3965 19.885 91.5482 21.1333 91.6882 22.3C91.8515 23.4433 91.9915 24.4 92.1082 25.17C92.2482 25.94 92.3298 26.4183 92.3532 26.605C92.3998 26.885 92.4115 27.2233 92.3882 27.62C92.3648 28.0167 92.1782 28.3667 91.8282 28.67C91.5015 28.9733 90.8832 29.1367 89.9732 29.16C89.0632 29.16 88.3865 29.055 87.9432 28.845C87.4998 28.635 87.1965 28.425 87.0332 28.215C86.8932 27.9817 86.8232 27.865 86.8232 27.865L81.5732 18.45C81.5732 18.45 81.6198 18.6833 81.7132 19.15C81.8065 19.6167 81.9115 20.2233 82.0282 20.97C82.1682 21.7167 82.2965 22.5217 82.4132 23.385C82.5532 24.2483 82.6582 25.0767 82.7282 25.87C82.7982 26.6633 82.7048 27.2583 82.4482 27.655C82.2148 28.0283 81.9115 28.285 81.5382 28.425C81.1882 28.565 80.8732 28.635 80.5932 28.635C80.3132 28.635 80.1732 28.635 80.1732 28.635Z" fill="#FF7E29"/>
<path d="M59.2771 10.8898C59.2771 10.8898 59.2537 10.7965 59.2071 10.6098C59.1604 10.3998 59.1721 10.1548 59.2421 9.87483C59.3354 9.59482 59.5454 9.33816 59.8721 9.10483C60.2221 8.87149 60.7704 8.71982 61.5171 8.64982C62.2637 8.57983 63.1037 8.52149 64.0371 8.47482C64.9937 8.42816 65.9037 8.38149 66.7671 8.33482C67.6537 8.28816 68.3771 8.25316 68.9371 8.22983C69.4971 8.20649 69.7771 8.19482 69.7771 8.19482C69.7771 8.19482 69.9287 8.20649 70.2321 8.22983C70.5587 8.22983 70.9321 8.27649 71.3521 8.36982C71.7954 8.43982 72.1921 8.59149 72.5421 8.82482C72.8921 9.03482 73.1021 9.34982 73.1721 9.76982C73.2421 10.1898 73.1604 10.5165 72.9271 10.7498C72.6937 10.9832 72.4137 11.1582 72.0871 11.2748C71.7604 11.3682 71.4687 11.4265 71.2121 11.4498C70.9554 11.4732 70.8271 11.4848 70.8271 11.4848L65.2271 11.7998C65.2271 11.7998 65.2621 11.9515 65.3321 12.2548C65.4021 12.5582 65.4721 12.9082 65.5421 13.3048C65.6354 13.6782 65.6937 14.0048 65.7171 14.2848C65.7404 14.5415 65.7637 14.8798 65.7871 15.2998C65.8104 15.6965 65.8337 16.0582 65.8571 16.3848C65.8804 16.6882 65.8921 16.8398 65.8921 16.8398H68.4821C68.4821 16.8398 68.6104 16.8515 68.8671 16.8748C69.1237 16.8748 69.4154 16.9215 69.7421 17.0148C70.0921 17.0848 70.3954 17.2015 70.6521 17.3648C70.9087 17.5282 71.0487 17.7732 71.0721 18.0998C71.0954 18.5198 70.9321 18.8348 70.5821 19.0448C70.2554 19.2548 69.9054 19.3948 69.5321 19.4648C69.1821 19.5115 68.9604 19.5465 68.8671 19.5698C68.7971 19.5698 68.6104 19.5815 68.3071 19.6048C68.0037 19.6048 67.6654 19.6048 67.2921 19.6048C66.9421 19.6048 66.6271 19.6048 66.3471 19.6048C66.0671 19.6048 65.9271 19.6048 65.9271 19.6048C65.9271 19.6048 65.9271 19.7798 65.9271 20.1298C65.9504 20.4565 65.9737 20.8415 65.9971 21.2848C66.0204 21.7282 66.0204 22.1132 65.9971 22.4398C65.9971 22.7432 65.9854 23.1165 65.9621 23.5598C65.9387 23.9798 65.9154 24.3532 65.8921 24.6798C65.8687 24.9832 65.8571 25.1348 65.8571 25.1348L70.5821 24.9598C70.5821 24.9598 70.7337 24.9598 71.0371 24.9598C71.3404 24.9365 71.7021 24.9598 72.1221 25.0298C72.5421 25.0998 72.9154 25.2398 73.2421 25.4498C73.5687 25.6598 73.7437 25.9748 73.7671 26.3948C73.8137 26.8148 73.6971 27.1532 73.4171 27.4098C73.1371 27.6665 72.8104 27.8532 72.4371 27.9698C72.0637 28.0865 71.7254 28.1682 71.4221 28.2148C71.1421 28.2382 71.0021 28.2498 71.0021 28.2498L63.4421 28.6348C63.4421 28.6348 63.2554 28.6348 62.8821 28.6348C62.5321 28.6582 62.1237 28.6348 61.6571 28.5648C61.1904 28.4715 60.7821 28.2965 60.4321 28.0398C60.0821 27.7598 59.9187 27.3398 59.9421 26.7798C59.9887 26.0332 60.0354 24.8665 60.0821 23.2798C60.1287 21.6698 60.1054 19.7915 60.0121 17.6448C59.9187 15.4982 59.6737 13.2465 59.2771 10.8898Z" fill="#FF7E29"/>
<path d="M49.9214 23.7349C49.9448 23.7349 50.1548 23.7349 50.5514 23.7349C50.9481 23.7116 51.4381 23.6999 52.0214 23.6999C52.6048 23.6766 53.1764 23.6649 53.7364 23.6649C54.3198 23.6416 54.8098 23.6299 55.2064 23.6299C55.6031 23.6066 55.8014 23.5949 55.8014 23.5949C55.8014 23.5949 55.9298 23.5949 56.1864 23.5949C56.4431 23.5949 56.7464 23.6416 57.0964 23.7349C57.4464 23.8049 57.7498 23.9682 58.0064 24.2249C58.2864 24.4816 58.4381 24.8782 58.4614 25.4149C58.4848 25.9282 58.3331 26.3366 58.0064 26.6399C57.7031 26.9199 57.3298 27.1182 56.8864 27.2349C56.4664 27.3283 56.0814 27.3866 55.7314 27.4099C55.4048 27.4332 55.2414 27.4449 55.2414 27.4449C55.2414 27.4449 54.9964 27.4682 54.5064 27.5149C54.0398 27.5382 53.4214 27.5966 52.6514 27.6899C51.8814 27.7833 51.0414 27.9116 50.1314 28.0749C49.2214 28.2149 48.3464 28.4016 47.5064 28.6349C46.6664 28.8682 45.9664 28.9499 45.4064 28.8799C44.8698 28.8333 44.4498 28.7166 44.1464 28.5299C43.8431 28.3199 43.6214 28.1099 43.4814 27.8999C43.3648 27.6666 43.3064 27.5149 43.3064 27.4449C43.2831 27.2816 43.3298 27.0833 43.4464 26.8499C43.5631 26.5933 43.7848 26.4183 44.1114 26.3249C44.2281 26.3016 44.2864 25.9749 44.2864 25.3449C44.2864 24.6916 44.2398 23.8632 44.1464 22.8599C44.0764 21.8333 43.9714 20.7249 43.8314 19.5349C43.6914 18.3449 43.5281 17.1666 43.3414 15.9999C43.1781 14.8333 43.0148 13.7949 42.8514 12.8849C42.6881 11.9749 42.5248 11.2982 42.3614 10.8549C42.1281 10.1782 42.1048 9.65325 42.2914 9.27991C42.4781 8.90658 42.7348 8.63825 43.0614 8.47492C43.4114 8.28825 43.7264 8.17158 44.0064 8.12492C44.3098 8.07825 44.4614 8.05492 44.4614 8.05492C44.4614 8.05492 44.6131 8.04325 44.9164 8.01991C45.2431 7.97325 45.6164 7.99658 46.0364 8.08992C46.4798 8.15992 46.8881 8.35825 47.2614 8.68491C47.6581 8.98825 47.9381 9.50158 48.1014 10.2249C48.3114 11.1816 48.5564 12.3132 48.8364 13.6199C49.1398 14.9032 49.3964 16.3849 49.6064 18.0649C49.8398 19.7449 49.9448 21.6349 49.9214 23.7349Z" fill="#FF7E29"/>
<path d="M26.9926 9.73476C26.9693 9.73476 27.0043 9.60643 27.0976 9.34977C27.2143 9.06976 27.471 8.80143 27.8676 8.54476C28.2643 8.2881 28.9176 8.1481 29.8276 8.12476C30.6443 8.10143 31.2626 8.20643 31.6826 8.43976C32.1026 8.64976 32.3826 8.85976 32.5226 9.06976C32.686 9.27976 32.7676 9.38476 32.7676 9.38476C32.7676 9.38476 32.896 9.6881 33.1526 10.2948C33.4093 10.9014 33.7593 11.7064 34.2026 12.7098C34.646 13.6898 35.136 14.7864 35.6726 15.9998C36.2093 17.2131 36.746 18.4498 37.2826 19.7098C37.8426 20.9464 38.356 22.1131 38.8226 23.2098C39.3126 24.2831 39.721 25.1931 40.0476 25.9398C40.3743 26.6631 40.5843 27.1181 40.6776 27.3048C40.8876 27.7481 41.0043 28.0631 41.0276 28.2498C41.051 28.4364 41.0393 28.5648 40.9926 28.6348C40.9693 28.6814 40.9576 28.7164 40.9576 28.7398C40.7943 29.0664 40.4676 29.3464 39.9776 29.5798C39.511 29.8364 38.9393 29.9764 38.2626 29.9998C37.3293 30.0231 36.6526 29.9181 36.2326 29.6848C35.8126 29.4748 35.5326 29.2531 35.3926 29.0198C35.276 28.8098 35.2293 28.7164 35.2526 28.7398C35.2526 28.7398 35.1243 28.4714 34.8676 27.9348C34.6343 27.3981 34.3543 26.7564 34.0276 26.0098C33.701 25.2398 33.3976 24.5398 33.1176 23.9098C33.1176 23.9098 32.9543 23.9098 32.6276 23.9098C32.3243 23.9098 31.9626 23.9098 31.5426 23.9098C31.1226 23.9098 30.7493 23.9098 30.4226 23.9098C30.1193 23.9098 29.9676 23.9098 29.9676 23.9098C29.8743 24.2364 29.781 24.6448 29.6876 25.1348C29.5943 25.6014 29.5126 26.0214 29.4426 26.3948C29.3726 26.7681 29.3376 26.9548 29.3376 26.9548C29.3376 26.9548 29.2793 27.0948 29.1626 27.3748C29.0693 27.6548 28.801 27.9348 28.3576 28.2148C27.9143 28.4948 27.1793 28.6348 26.1526 28.6348C25.3826 28.6348 24.7993 28.5531 24.4026 28.3898C24.0293 28.2031 23.7726 27.9931 23.6326 27.7598C23.516 27.5264 23.4576 27.3281 23.4576 27.1648C23.4576 26.9781 23.4576 26.8848 23.4576 26.8848C23.5043 26.6514 23.5976 26.1731 23.7376 25.4498C23.901 24.7031 24.0876 23.8164 24.2976 22.7898C24.531 21.7398 24.7643 20.6314 24.9976 19.4648C25.2543 18.2981 25.4993 17.1431 25.7326 15.9998C25.966 14.8564 26.176 13.8181 26.3626 12.8848C26.5493 11.9281 26.701 11.1698 26.8176 10.6098C26.9343 10.0264 26.9926 9.73476 26.9926 9.73476ZM30.6676 15.2648C30.6443 15.3581 30.621 15.5448 30.5976 15.8248L30.4576 16.8048C30.411 17.3414 30.3526 17.9131 30.2826 18.5198C30.2126 19.1264 30.1426 19.6981 30.0726 20.2348C30.026 20.5148 29.991 20.6898 29.9676 20.7598H30.4226C30.7026 20.7598 31.006 20.7481 31.3326 20.7248C31.6593 20.7014 31.951 20.6898 32.2076 20.6898C32.1143 20.5031 32.0326 20.2698 31.9626 19.9898C31.916 19.6864 31.8576 19.4064 31.7876 19.1498C31.6476 18.6131 31.4843 18.0531 31.2976 17.4698C31.1343 16.8864 30.9826 16.3381 30.8426 15.8248C30.7726 15.5448 30.7143 15.3581 30.6676 15.2648Z" fill="#FF7E29"/>
<path d="M22.1167 24.1196C22.1167 24.1196 22.0817 24.2713 22.0117 24.5746C21.9417 24.878 21.79 25.2513 21.5567 25.6946C21.3233 26.138 20.9617 26.593 20.4717 27.0596C20.005 27.503 19.3633 27.8763 18.5467 28.1796C17.73 28.483 16.7033 28.6346 15.4667 28.6346C13.9733 28.6346 12.7483 28.4013 11.7917 27.9346C10.8583 27.468 10.1233 26.838 9.58667 26.0446C9.05 25.228 8.665 24.3296 8.43167 23.3496C8.19833 22.3463 8.05833 21.308 8.01167 20.2346C7.98833 19.1613 8 18.123 8.04667 17.1196C8.09333 16.093 8.12833 15.1713 8.15167 14.3546C8.175 13.118 8.39667 12.1263 8.81667 11.3796C9.26 10.6096 9.79667 10.0263 10.4267 9.62963C11.08 9.20963 11.7567 8.91797 12.4567 8.75463C13.1567 8.5913 13.7867 8.49797 14.3467 8.47463C15.49 8.40463 16.645 8.60297 17.8117 9.06963C18.9783 9.5363 19.9233 10.3996 20.6467 11.6596C21.02 12.2896 21.125 12.7913 20.9617 13.1646C20.8217 13.5146 20.5533 13.7713 20.1567 13.9346C19.7833 14.098 19.3983 14.203 19.0017 14.2496C18.605 14.2963 18.3483 14.3196 18.2317 14.3196C17.485 14.3196 16.9133 14.2146 16.5167 14.0046C16.1433 13.7946 15.875 13.5496 15.7117 13.2696C15.5717 12.9663 15.5017 12.698 15.5017 12.4646C15.5017 12.278 15.4433 12.0913 15.3267 11.9046C15.2333 11.6946 15.105 11.5546 14.9417 11.4846C14.8017 11.4146 14.65 11.4963 14.4867 11.7296C14.3467 11.963 14.23 12.418 14.1367 13.0946C14.0667 13.6313 14.02 14.343 13.9967 15.2296C13.9967 16.093 14.0083 17.0146 14.0317 17.9946C14.055 18.9513 14.0783 19.8613 14.1017 20.7246C14.1483 21.588 14.1833 22.2996 14.2067 22.8596C14.2533 23.3963 14.2767 23.6646 14.2767 23.6646C14.2767 23.6646 14.3 23.8396 14.3467 24.1896C14.4167 24.5396 14.545 24.8896 14.7317 25.2396C14.9417 25.5896 15.245 25.7763 15.6417 25.7996C15.945 25.823 16.1783 25.7296 16.3417 25.5196C16.5283 25.2863 16.6567 25.0296 16.7267 24.7496C16.82 24.4463 16.8783 24.1896 16.9017 23.9796C16.925 23.7463 16.9367 23.6296 16.9367 23.6296C16.9367 23.6296 16.925 23.5363 16.9017 23.3496C16.9017 23.163 16.96 22.953 17.0767 22.7196C17.1933 22.463 17.4383 22.253 17.8117 22.0896C18.185 21.903 18.7567 21.8213 19.5267 21.8446C20.2967 21.868 20.8683 21.9963 21.2417 22.2296C21.615 22.4396 21.86 22.6963 21.9767 22.9996C22.0933 23.2796 22.14 23.5363 22.1167 23.7696C22.1167 24.003 22.1167 24.1196 22.1167 24.1196Z" fill="#FF7E29"/>
</svg>
