<svg width="32" height="32" viewBox="0 0 32 32" fill="none" xmlns="http://www.w3.org/2000/svg">
<path fill-rule="evenodd" clip-rule="evenodd" d="M20.6381 19.2908C21.8254 17.7601 22.385 15.8345 22.203 13.9059C22.021 11.9772 21.111 10.1903 19.6583 8.90873C18.2055 7.62715 16.3191 6.94715 14.3828 7.00707C12.4465 7.06698 10.6057 7.86232 9.23502 9.23127C7.8631 10.6012 7.06517 12.4426 7.00382 14.3804C6.94247 16.3182 7.62232 18.2065 8.90484 19.6604C10.1874 21.1143 11.976 22.0245 13.9063 22.2055C15.8366 22.3865 17.7632 21.8246 19.2936 20.6343L19.3346 20.6772L23.3737 24.7172C23.4621 24.8057 23.5671 24.8759 23.6827 24.9237C23.7983 24.9716 23.9222 24.9963 24.0473 24.9963C24.1724 24.9963 24.2963 24.9716 24.4119 24.9237C24.5275 24.8759 24.6325 24.8057 24.721 24.7172C24.8094 24.6287 24.8796 24.5237 24.9275 24.4081C24.9754 24.2926 25 24.1687 25 24.0436C25 23.9184 24.9754 23.7946 24.9275 23.679C24.8796 23.5634 24.8094 23.4584 24.721 23.3699L20.6809 19.3308C20.667 19.3171 20.6527 19.3038 20.6381 19.2908ZM18.6614 10.5786C19.199 11.1075 19.6266 11.7376 19.9194 12.4326C20.2123 13.1275 20.3646 13.8736 20.3677 14.6278C20.3708 15.3819 20.2245 16.1292 19.9373 16.8265C19.6501 17.5239 19.2277 18.1574 18.6944 18.6907C18.1612 19.224 17.5276 19.6464 16.8303 19.9335C16.1329 20.2207 15.3856 20.367 14.6315 20.3639C13.8774 20.3609 13.1313 20.2085 12.4363 19.9157C11.7413 19.6228 11.1112 19.1953 10.5823 18.6577C9.52535 17.5833 8.93571 16.1349 8.94185 14.6278C8.94799 13.1207 9.5494 11.677 10.6151 10.6113C11.6808 9.54565 13.1244 8.94424 14.6315 8.9381C16.1386 8.93196 17.5871 9.5216 18.6614 10.5786Z" fill="#333333"/>
</svg>
